<svg xmlns="http://www.w3.org/2000/svg" width="1100" height="760" viewBox="0 0 1100 760" role="img" aria-label="Desk notes and warm study objects">
  <defs>
    <linearGradient id="paper" x1="0" y1="0" x2="1" y2="1">
      <stop offset="0" stop-color="#f8efd8"/>
      <stop offset="1" stop-color="#dfc894"/>
    </linearGradient>
  </defs>
  <rect width="1100" height="760" fill="#274c43"/>
  <rect x="86" y="82" width="928" height="594" rx="28" fill="#cfb579"/>
  <rect x="170" y="138" width="440" height="486" rx="18" fill="url(#paper)" transform="rotate(-4 390 381)"/>
  <rect x="508" y="170" width="360" height="386" rx="18" fill="#f2e7ca" transform="rotate(7 688 363)"/>
  <path d="M238 232 H510 M232 298 H514 M226 364 H484 M220 430 H520" stroke="#987845" stroke-width="10" stroke-linecap="round" opacity="0.62"/>
  <path d="M572 274 H792 M566 334 H806 M560 394 H770" stroke="#476d61" stroke-width="11" stroke-linecap="round" opacity="0.7"/>
  <circle cx="872" cy="178" r="56" fill="#e5ad3d"/>
  <rect x="820" y="518" width="152" height="32" rx="16" fill="#2a5e52" transform="rotate(-18 896 534)"/>
  <rect x="118" y="612" width="864" height="24" rx="12" fill="#183b36" opacity="0.35"/>
</svg>
