<svg xmlns="http://www.w3.org/2000/svg" width="1100" height="760" viewBox="0 0 1100 760" role="img" aria-label="Admin dashboard board">
  <rect width="1100" height="760" fill="#203f3a"/>
  <rect x="86" y="76" width="928" height="608" rx="34" fill="#f3ead7"/>
  <rect x="126" y="126" width="228" height="508" rx="22" fill="#2f665a"/>
  <rect x="390" y="126" width="584" height="120" rx="22" fill="#e5c777"/>
  <rect x="390" y="278" width="264" height="158" rx="22" fill="#ffffff" opacity="0.92"/>
  <rect x="690" y="278" width="284" height="158" rx="22" fill="#ffffff" opacity="0.92"/>
  <rect x="390" y="468" width="584" height="166" rx="22" fill="#ffffff" opacity="0.92"/>
  <path d="M160 188 H304 M160 248 H284 M160 308 H314 M160 368 H268" stroke="#f1dfba" stroke-width="16" stroke-linecap="round"/>
  <path d="M428 172 H690 M428 214 H824" stroke="#654b24" stroke-width="16" stroke-linecap="round" opacity="0.45"/>
  <path d="M430 338 H596 M430 386 H560 M730 338 H910 M730 386 H862 M430 528 H870 M430 580 H760" stroke="#315f56" stroke-width="14" stroke-linecap="round" opacity="0.58"/>
  <circle cx="924" cy="184" r="38" fill="#d66d4a"/>
</svg>
